# xmcd
#
# Track frame offsets:
#	150
#	14424
#	28757
#	43459
#	57663
#	72137
#	87701
#	99818
#	112982
#	126567
#	138684
#	159543
#	172357
#	187287
#	202810
#	214093
#	227782
#	243682
#
# Disc length: 3604 seconds
#
# Revision: 1
# Processed by: cddbd v1.5.2PL0 Copyright (c) Steve Scherf et al.
# Submitted via: audiograbber 1.83.01
#
DISCID=1d0e1212
DTITLE=Various Artist - Classic Blues Vol. 03
DYEAR=2000
DGENRE=Blues
TTITLE0=Sleepy John Estes - Drop Down Mama
TTITLE1=Lonnie Johnson - I'm Nuts About That Gal
TTITLE2=Memphis Mini - If You See My Roots
TTITLE3=Washboard Sam - Goodluck Blues
TTITLE4=Robert Nighthawk - Annie Lee Blues
TTITLE5=Tampa Red - Sugar Mama Blues No. 1
TTITLE6=Noah Lewis - New Minglewood Blues
TTITLE7=Buddy Moss - Jealous Hearted Man
TTITLE8=Robert Johnson - Sweet Home Chicago
TTITLE9=Sister Rosetta Tharpe - Trouble In Mind
TTITLE10=Mighty Joe Young - Why Do You Want To Hurt Me
TTITLE11=Arthur 'Big Boy' Crudup - Goona Follow My Baby
TTITLE12=Bessie Smith - Back Water Blues
TTITLE13=Louisiana Red - Lightning' Bug
TTITLE14=Robert Johnson - Me And The Devil Blues
TTITLE15=Buddy Guy - This Is The End
TTITLE16=Big Walter 'Shakey' Horton - That Ain't It
TTITLE17=Mississippi Fred Mc Dowel - 61 Highway
EXTD=
EXTT0=
EXTT1=
EXTT2=
EXTT3=
EXTT4=
EXTT5=
EXTT6=
EXTT7=
EXTT8=
EXTT9=
EXTT10=
EXTT11=
EXTT12=
EXTT13=
EXTT14=
EXTT15=
EXTT16=
EXTT17=
PLAYORDER=
